<svg height="496pt" viewBox="-32 0 496 496" width="496pt" xmlns="http://www.w3.org/2000/svg"><path d="m424 0h-320c-4.425781 0-8 3.574219-8 8v24h-24c-4.425781 0-8 3.574219-8 8v256.023438c-37.542969 15.703124-64 52.800781-64 95.976562 0 57.34375 46.65625 104 104 104h288c4.425781 0 8-3.574219 8-8v-24h24c4.425781 0 8-3.574219 8-8v-448c0-4.425781-3.574219-8-8-8zm-408 392c0-48.519531 39.480469-88 88-88s88 39.480469 88 88-39.480469 88-88 88-88-39.480469-88-88zm304-120h32v208h-32zm3.542969-16 12.457031-33.214844 12.457031 33.214844zm44.457031 224v-216c0-.960938-.167969-1.910156-.503906-2.816406l-24-64c-1.175782-3.113282-4.160156-5.183594-7.496094-5.183594s-6.320312 2.070312-7.496094 5.183594l-24 64c-.335937.90625-.503906 1.855468-.503906 2.816406v216h-144.832031c29.273437-18.425781 48.832031-50.9375 48.832031-88 0-57.34375-46.65625-104-104-104-8.273438 0-16.28125 1.070312-24 2.902344v-242.902344h240v56c0 4.425781 3.574219 8 8 8h56v368zm4.6875-384h-36.6875v-36.6875zm43.3125 352h-16v-344c0-2.128906-.839844-4.160156-2.34375-5.65625l-63.992188-63.992188c-1.449218-1.449218-3.449218-2.351562-5.664062-2.351562h-216v-16h304zm0 0"/><path d="m96 128h272v16h-272zm0 0"/><path d="m96 160h272v16h-272zm0 0"/><path d="m48 392h16v56h-16zm0 0"/><path d="m48 360h16v16h-16zm0 0"/><path d="m80 408h16v40h-16zm0 0"/><path d="m80 376h16v16h-16zm0 0"/><path d="m112 392h16v56h-16zm0 0"/><path d="m112 360h16v16h-16zm0 0"/><path d="m144 368h16v80h-16zm0 0"/><path d="m144 336h16v16h-16zm0 0"/><path d="m96 192h192v16h-192zm0 0"/><path d="m96 224h192v16h-192zm0 0"/><path d="m96 256h192v16h-192zm0 0"/></svg>