<svg id="Layer_5" enable-background="new 0 0 64 64" height="512" viewBox="0 0 64 64" width="512" xmlns="http://www.w3.org/2000/svg"><g><path d="m63 5v-2c0-1.103-.897-2-2-2h-58c-1.103 0-2 .897-2 2v2c0 1.103.897 2 2 2v38c-1.103 0-2 .897-2 2v2c0 1.103.897 2 2 2h18.612l-4 12h8.108l4-12h4.558l4 12h8.108l-4-12h18.614c1.103 0 2-.897 2-2v-2c0-1.103-.897-2-2-2v-38c1.103 0 2-.897 2-2zm-60-2h58l.001 2h-58.001zm2 24h4v14h-4zm19.279 34h-3.892l3.334-10h3.892zm19.334 0h-3.892l-3.333-10h3.892zm17.388-12h-58.001v-2h58zm-2.001-4h-54v-2h6v-2h.838l1.922.641c.714.238 1.459.359 2.214.359h14.026c1.498 0 2.733-1.107 2.954-2.545l.211-.109c.709.362 1.455.67 2.229.919l.877 2.735h7.459l.876-2.734c.774-.249 1.52-.557 2.229-.919l2.548 1.311 5.274-5.273-1.312-2.549c.363-.709.67-1.455.919-2.229l2.736-.878v-7.459l-2.734-.876c-.248-.772-.556-1.519-.919-2.229l1.312-2.549-5.274-5.274-2.549 1.312c-.709-.362-1.455-.67-2.229-.919l-.878-2.735h-7.459l-.876 2.734c-.774.249-1.52.557-2.229.919l-2.549-1.312-5.274 5.274 1.312 2.549c-.366.716-.675 1.469-.925 2.247l-1.729.61v-6.021c0-2.206-1.794-4-4-4-1.103 0-2 .897-2 2v5.395c0 2.549-1.266 4.915-3.387 6.328-1.084.723-2.324 1.13-3.613 1.233v-1.956h-6v-18h54zm-48-16.044c1.685-.106 3.309-.626 4.723-1.569 2.678-1.785 4.277-4.773 4.277-7.992v-5.395c1.103 0 2 .897 2 2v7c0 1.654 1.346 3 3 3h5c.551 0 1 .448 1 1s-.449 1-1 1h-3v2h3c.551 0 1 .448 1 1s-.449 1-1 1h-3v2h3c.551 0 1 .448 1 1s-.449 1-1 1h-3v2h3c.551 0 1 .448 1 1s-.449 1-1 1h-14.026c-.54 0-1.071-.086-1.581-.256l-2.231-.744h-1.162zm16.788-11.957 3.211-3.212 2.195 1.13.468-.263c.867-.484 1.807-.872 2.796-1.152l.517-.146.754-2.356h4.541l.755 2.356.517.146c.989.28 1.929.668 2.796 1.152l.468.263 2.195-1.13 3.211 3.212-1.129 2.194.262.469c.487.87.875 1.811 1.153 2.797l.146.517 2.356.753v4.541l-2.356.754-.146.517c-.279.989-.667 1.93-1.153 2.796l-.263.469 1.13 2.195-3.211 3.211-2.195-1.129-.468.263c-.867.484-1.807.872-2.796 1.152l-.517.146-.754 2.356h-4.541l-.755-2.356-.517-.146c-.989-.28-1.929-.668-2.796-1.152l-.468-.263-.655.337c-.094-.15-.202-.289-.32-.42.48-.532.78-1.229.78-2 0-.198-.022-.39-.058-.578 1.961 1.64 4.453 2.578 7.059 2.578 6.065 0 11-4.935 11-11s-4.935-11-11-11c-5.373 0-9.868 3.81-10.813 9h-4.187c-.135 0-.262-.028-.379-.077l2.74-.966.141-.498c.278-.986.667-1.927 1.153-2.797l.262-.469zm3.384 7.24c.821-4.183 4.474-7.239 8.828-7.239 4.962 0 9 4.037 9 9s-4.038 9-9 9c-2.757 0-5.355-1.284-7.057-3.439.035-.182.057-.369.057-.561 0-.771-.301-1.468-.78-2 .48-.532.78-1.229.78-2 0-1.239-.755-2.304-1.828-2.761z"/><path d="m40 33c3.86 0 7-3.141 7-7s-3.14-7-7-7-7 3.141-7 7 3.14 7 7 7zm0-12c2.757 0 5 2.243 5 5s-2.243 5-5 5-5-2.243-5-5 2.243-5 5-5z"/><path d="m7 9h9v2h-9z"/><path d="m7 13h9v2h-9z"/><path d="m7 17h9v2h-9z"/></g></svg>