<svg id="Capa_1" enable-background="new 0 0 512 512" height="512" viewBox="0 0 512 512" width="512" xmlns="http://www.w3.org/2000/svg"><g><g><path d="m451.101 396.102 3.934-3.934c9.05-9.049 14.033-21.082 14.033-33.882s-4.983-24.832-14.034-33.883l-29.238-29.229v-78.349l29.239-29.23c9.05-9.049 14.033-21.082 14.033-33.882s-4.983-24.833-14.033-33.882l-3.934-3.934c.97.048 1.941.075 2.912.075 14.857 0 29.713-5.655 41.022-16.965 22.62-22.62 22.62-59.425 0-82.044-22.619-22.619-59.424-22.62-82.044 0-12.049 12.049-17.677 28.123-16.89 43.934l-3.933-3.933c-9.049-9.05-21.082-14.033-33.882-14.033s-24.832 4.983-33.883 14.034l-29.229 29.238h-78.349l-29.23-29.239c-9.049-9.05-21.082-14.033-33.882-14.033s-24.833 4.983-33.882 14.033l-3.933 3.933c.788-15.811-4.84-31.885-16.89-43.934-22.62-22.62-59.425-22.619-82.044 0-22.62 22.62-22.62 59.425 0 82.044 11.31 11.31 26.166 16.965 41.022 16.965.971 0 1.942-.027 2.912-.075l-3.934 3.934c-9.05 9.049-14.033 21.082-14.033 33.882s4.983 24.832 14.034 33.883l29.238 29.229v78.348l-29.235 29.236c-9.049 9.049-14.033 21.081-14.033 33.879s4.984 24.829 14.033 33.878l3.936 3.936c-15.813-.789-31.89 4.838-43.941 16.889-22.62 22.62-22.62 59.425 0 82.044 11.312 11.31 26.168 16.965 41.024 16.965s29.712-5.655 41.022-16.965c12.051-12.051 17.679-28.127 16.889-43.94l3.936 3.936c9.049 9.049 21.08 14.033 33.878 14.033s24.829-4.984 33.879-14.033l29.235-29.235h78.348l29.23 29.239c9.049 9.05 21.082 14.033 33.882 14.033s24.833-4.983 33.882-14.033l3.933-3.933c-.788 15.811 4.84 31.885 16.89 43.934 11.31 11.31 26.166 16.965 41.022 16.965 14.857 0 29.713-5.655 41.022-16.965 22.62-22.62 22.62-59.425 0-82.044-12.049-12.05-28.123-17.678-43.934-16.89zm-362.699 88.326c-8.124 8.124-18.925 12.598-30.415 12.598-11.489 0-22.29-4.474-30.414-12.598s-12.598-18.925-12.598-30.414c0-11.49 4.474-22.291 12.598-30.415 8.385-8.385 19.4-12.578 30.415-12.578 11.014 0 22.029 4.193 30.414 12.578 16.77 16.77 16.77 44.058 0 60.829zm335.196-456.856c8.124-8.124 18.925-12.598 30.415-12.598 11.489 0 22.29 4.474 30.414 12.598s12.598 18.925 12.598 30.414c0 11.49-4.474 22.291-12.598 30.415-16.734 16.735-43.941 16.767-60.721.103l-.212-.212c-16.663-16.779-16.63-43.985.104-60.72zm-396.026 60.83c-8.124-8.124-12.598-18.925-12.598-30.415 0-11.489 4.474-22.29 12.598-30.414s18.925-12.598 30.414-12.598c11.49 0 22.291 4.474 30.415 12.598 16.735 16.735 16.767 43.941.103 60.721l-.212.212c-16.778 16.664-43.985 16.63-60.72-.104zm149.411 356.021c-6.216 6.216-14.481 9.639-23.271 9.639s-17.055-3.423-23.271-9.639l-62.865-62.865c-6.216-6.216-9.639-14.48-9.639-23.271s3.423-17.055 9.639-23.271l26.128-26.129 19.396 19.396-8.984 8.983c-2.93 2.929-2.93 7.678 0 10.608 1.465 1.465 3.384 2.197 5.304 2.197 1.919 0 3.839-.732 5.304-2.197l8.984-8.983 49.399 49.399-8.983 8.984c-2.93 2.93-2.93 7.679 0 10.608 1.465 1.465 3.384 2.197 5.304 2.197s3.839-.732 5.304-2.197l8.983-8.984 19.396 19.396zm204.577.004c-6.216 6.216-14.482 9.639-23.274 9.639s-17.058-3.423-23.273-9.638l-26.121-26.13 19.396-19.396 8.98 8.98c1.465 1.465 3.384 2.197 5.304 2.197 1.919 0 3.839-.732 5.304-2.197 2.93-2.929 2.93-7.678 0-10.608l-8.98-8.98 13.269-13.268c2.93-2.929 2.93-7.679 0-10.608-2.929-2.93-7.678-2.929-10.608 0l-46.376 46.376h-78.354l-115.62-115.62v-78.354l50.166-50.166c2.93-2.929 2.93-7.679 0-10.608-2.929-2.929-7.679-2.929-10.608 0l-17.059 17.059-8.98-8.98c-2.929-2.93-7.679-2.929-10.608 0-2.93 2.93-2.93 7.679 0 10.608l8.98 8.98-19.396 19.396-26.129-26.12c-6.216-6.216-9.639-14.482-9.639-23.274s3.423-17.058 9.639-23.274l62.867-62.867c6.216-6.216 14.482-9.639 23.274-9.639s17.058 3.423 23.273 9.638l26.121 26.13-19.396 19.396-8.98-8.98c-2.929-2.93-7.679-2.93-10.608 0-2.93 2.929-2.93 7.678 0 10.608l8.98 8.98-7.598 7.598c-2.93 2.929-2.93 7.679 0 10.608 2.929 2.93 7.678 2.93 10.608 0 0 0 40.396-41.014 40.706-40.705h78.36l43.535 43.535c2.929 2.929 7.679 2.929 10.608 0 2.93-2.929 2.93-7.679 0-10.608l-10.428-10.428 8.98-8.98c2.93-2.93 2.93-7.679 0-10.608-2.929-2.93-7.679-2.929-10.608 0l-8.98 8.98-19.396-19.396 26.12-26.129c6.216-6.216 14.482-9.639 23.274-9.639s17.058 3.423 23.274 9.639l62.867 62.867c6.216 6.216 9.639 14.482 9.639 23.274s-3.423 17.058-9.638 23.273l-26.13 26.121-19.396-19.396 8.98-8.98c2.93-2.929 2.93-7.678 0-10.608-2.929-2.93-7.678-2.93-10.608 0l-8.98 8.98-14.219-14.219c-2.929-2.929-7.679-2.929-10.608 0-2.93 2.929-2.93 7.679 0 10.608l47.326 47.326v78.36l-44.495 44.496c-2.93 2.929-2.93 7.679 0 10.608 2.929 2.929 7.679 2.929 10.608 0l11.388-11.388 8.98 8.98c1.465 1.465 3.384 2.197 5.304 2.197s3.839-.732 5.304-2.197c2.93-2.93 2.93-7.679 0-10.608l-8.98-8.98 19.396-19.396 26.129 26.12c6.216 6.216 9.639 14.482 9.639 23.274s-3.423 17.058-9.639 23.274zm102.868 40.001c-8.124 8.124-18.925 12.598-30.414 12.598-11.49 0-22.291-4.474-30.415-12.598-16.735-16.735-16.767-43.941-.103-60.721l.212-.212c8.372-8.314 19.338-12.475 30.306-12.475 11.015 0 22.03 4.193 30.415 12.578 8.124 8.124 12.598 18.925 12.598 30.415-.001 11.489-4.475 22.291-12.599 30.415z"/><path d="m288.72 168.375c-.243-1.563-.643-3.026-2.161-4.563l-17.173-17.173c-2.929-2.93-7.678-2.93-10.608 0-2.93 2.929-2.93 7.678 0 10.608l4.37 4.37h-32.405c-4.143 0-7.501 3.358-7.501 7.501s3.358 7.501 7.501 7.501h32.405l-4.37 4.37c-2.93 2.93-2.93 7.679 0 10.608 1.465 1.465 3.384 2.197 5.304 2.197s3.839-.733 5.304-2.197l17.173-17.173c1.306-1.455 2.456-3.388 2.161-6.049z"/><path d="m365.362 258.779c-2.929-2.93-7.678-2.93-10.608 0l-4.37 4.37v-32.405c0-4.143-3.358-7.501-7.501-7.501s-7.501 3.358-7.501 7.501v32.405l-4.37-4.37c-2.929-2.929-7.679-2.929-10.608 0-2.93 2.93-2.93 7.679 0 10.608l17.173 17.173c2.576 2.624 7.599 3.167 10.61 0l17.173-17.173c2.931-2.93 2.931-7.679.002-10.608z"/><path d="m281.257 335.383h-32.405l4.37-4.37c2.93-2.93 2.93-7.679 0-10.608-2.929-2.929-7.679-2.929-10.608 0l-17.173 17.173c-2.683 2.631-3.106 7.676 0 10.61l17.173 17.173c1.465 1.465 3.384 2.197 5.304 2.197 1.919 0 3.839-.732 5.304-2.197 2.93-2.929 2.93-7.678 0-10.608l-4.37-4.37h32.405c4.143 0 7.501-3.358 7.501-7.501-.001-4.141-3.359-7.499-7.501-7.499z"/><path d="m174.422 225.441c-2.648-2.7-7.698-3.089-10.61 0l-17.173 17.173c-2.93 2.929-2.93 7.678 0 10.608 1.465 1.465 3.384 2.197 5.304 2.197 1.919 0 3.839-.732 5.304-2.197l4.37-4.37v32.405c0 4.143 3.358 7.501 7.501 7.501s7.501-3.358 7.501-7.501v-32.405l4.37 4.37c1.465 1.465 3.384 2.197 5.304 2.197s3.839-.732 5.304-2.197c2.93-2.93 2.93-7.679 0-10.608z"/></g></g></svg>